<?xml version="1.0" encoding="UTF-8"?><svg id="a" xmlns="http://www.w3.org/2000/svg" viewBox="0 0 1911.6 326.5"><g id="b"><g id="c"><path id="d" d="M568.4,190.4h-127.4v131.6h-66.4V0h209.7V53.7h-143.3v83.2h127.4v53.5h0Z" style="fill:#009485;"/><path id="e" d="M749.8,322c-3-5.8-5.1-12.9-6.4-21.5-15.5,17.3-35.6,25.9-60.4,25.9s-42.9-6.8-58.3-20.3c-15.4-13.6-23.1-30.7-23.1-51.3s9.4-44.8,28.2-58.4c18.8-13.6,46-20.4,81.5-20.6h29.4v-13.7c0-11.1-2.8-19.9-8.5-26.5s-14.6-10-26.9-10-19.2,2.6-25.3,7.7c-6.1,5.2-9.2,12.2-9.2,21.2h-63.9c0-13.9,4.3-26.7,12.8-38.5s20.6-21,36.3-27.8c15.6-6.7,33.2-10.1,52.6-10.1,29.5,0,52.9,7.4,70.2,22.2s26,35.6,26,62.5v103.7c0,22.7,3.3,39.9,9.5,51.5v3.8h-64.6v.2Zm-52.8-44.5c9.4,0,18.1-2.1,26.1-6.3s13.9-9.8,17.7-16.9v-41.1h-23.9c-32,0-49,11.1-51.1,33.2l-.2,3.8c0,8,2.8,14.5,8.4,19.7,5.6,5.2,13.3,7.7,23,7.7h0Z" style="fill:#009485;"/><path id="f" d="M983.6,255.9c0-7.8-3.9-14-11.6-18.5-7.7-4.5-20.2-8.5-37.3-12.1-56.9-11.9-85.4-36.1-85.4-72.5s8.8-39,26.4-53.2c17.6-14.2,40.7-21.3,69.1-21.3s54.7,7.2,72.9,21.5c18.2,14.3,27.3,32.9,27.3,55.7h-63.9c0-9.1-3-16.7-8.8-22.7-5.9-6-15.1-9-27.6-9s-19.1,2.4-25,7.3c-5.9,4.9-8.8,11.1-8.8,18.6s3.4,12.8,10.1,17.1c6.7,4.4,18,8.1,33.9,11.3s29.3,6.7,40.3,10.7c33.8,12.4,50.6,33.8,50.6,64.4s-9.4,39.5-28.1,53c-18.7,13.5-42.9,20.2-72.5,20.2s-37.9-3.6-53.4-10.7c-15.6-7.2-27.8-17-36.6-29.4-8.8-12.5-13.3-25.9-13.3-40.4h60.6c.6,11.4,4.8,20.1,12.6,26.1s18.3,9.1,31.4,9.1,21.5-2.3,27.8-7c6.3-4.6,9.4-10.7,9.4-18.2h-.1Z" style="fill:#009485;"/><path id="g" d="M1163.4,23.9v58.8h40.9v46.9h-40.9v119.4c0,8.8,1.7,15.2,5.1,19s9.9,5.8,19.5,5.8,13.3-.5,18.8-1.5v48.4c-12.5,3.8-25.4,5.8-38.7,5.8-44.8,0-67.7-22.6-68.6-67.9V129.7h-34.9v-46.9h34.9V24h63.9Z" style="fill:#009485;"/><path id="h" d="M1425.9,255.6h-116.3l-22.1,66.4h-70.6L1336.8,0h61.5l120.5,322h-70.6l-22.3-66.4Zm-98.4-53.7h80.5l-40.5-120.5-40,120.5Z" style="fill:#009485;"/><path id="i" d="M1615.2,208.5v113.5h-66.4V0h125.6c24.2,0,45.5,4.4,63.8,13.3,18.4,8.8,32.5,21.4,42.4,37.7,9.9,16.3,14.8,34.8,14.8,55.6,0,31.6-10.8,56.4-32.4,74.6-21.6,18.2-51.5,27.3-89.7,27.3h-58.1Zm0-53.7h59.3c17.5,0,30.9-4.1,40.1-12.4,9.2-8.3,13.8-20.1,13.8-35.4s-4.6-28.5-13.9-38.3c-9.3-9.8-22.1-14.7-38.5-15h-60.8v101.1h0Z" style="fill:#009485;"/><path id="j" d="M1911.6,322h-66.4V0h66.4V322Z" style="fill:#009485;"/></g><path id="k" d="M163.2,0C73.1,0,0,73.1,0,163.2s73.1,163.2,163.2,163.2,163.2-73.1,163.2-163.2S253.3,0,163.2,0Zm-8.5,294.1v-102.4h-56.9L179.6,32.4v102.4h54.8l-79.6,159.3h-.1Z" style="fill:#009485;"/></g></svg>