<?xml version="1.0" encoding="UTF-8"?><svg id="a" xmlns="http://www.w3.org/2000/svg" xmlns:xlink="http://www.w3.org/1999/xlink" viewBox="0 0 662.8 670.1"><defs><linearGradient id="b" x1="1655.6" y1="1091.6" x2="2305.7" y2="1650.9" gradientTransform="translate(-961.6 -592.3) scale(.6)" gradientUnits="userSpaceOnUse"><stop offset="0" stop-color="#5a9fd4"/><stop offset="1" stop-color="#306998"/></linearGradient><linearGradient id="d" x1="2509.7" y1="1992.6" x2="2277.5" y2="1664.2" gradientTransform="translate(-961.6 -592.3) scale(.6)" gradientUnits="userSpaceOnUse"><stop offset="0" stop-color="#ffd43b"/><stop offset="1" stop-color="#ffe873"/></linearGradient><linearGradient id="f" x1="75.5" y1="452.1" x2="163" y2="376" gradientTransform="translate(0 740) scale(1 -1)" gradientUnits="userSpaceOnUse"><stop offset="0" stop-color="#ffd43b"/><stop offset="1" stop-color="#ffe873"/></linearGradient><linearGradient id="g" x1="87.9" y1="446" x2="93.7" y2="440.9" gradientTransform="translate(0 740) scale(1 -1)" gradientUnits="userSpaceOnUse"><stop offset="0" stop-color="#ffd43b"/><stop offset="1" stop-color="#ffe873"/></linearGradient><linearGradient id="h" x1="337.3" y1="364.6" x2="267.5" y2="265.9" gradientTransform="translate(0 740) scale(1 -1)" gradientUnits="userSpaceOnUse"><stop offset="0" stop-color="#5a9fd4"/><stop offset="1" stop-color="#306998"/></linearGradient><linearGradient id="i" x1="386.6" y1="304.2" x2="365.7" y2="274.6" gradientTransform="translate(0 740) scale(1 -1)" gradientUnits="userSpaceOnUse"><stop offset="0" stop-color="#5a9fd4"/><stop offset="1" stop-color="#306998"/></linearGradient><linearGradient id="j" x1="448.7" y1="336.2" x2="404.5" y2="273.7" gradientTransform="translate(0 740) scale(1 -1)" gradientUnits="userSpaceOnUse"><stop offset="0" stop-color="#5a9fd4"/><stop offset="1" stop-color="#306998"/></linearGradient><linearGradient id="k" x1="473.7" y1="304.1" x2="452.8" y2="274.5" gradientTransform="translate(0 740) scale(1 -1)" gradientUnits="userSpaceOnUse"><stop offset="0" stop-color="#5a9fd4"/><stop offset="1" stop-color="#306998"/></linearGradient><linearGradient id="l" x1="511.7" y1="303.3" x2="490.9" y2="273.9" gradientTransform="translate(0 740) scale(1 -1)" gradientUnits="userSpaceOnUse"><stop offset="0" stop-color="#5a9fd4"/><stop offset="1" stop-color="#306998"/></linearGradient></defs><g><path id="c" d="M327.6,0c-27.3,.1-53.4,2.5-76.4,6.5-67.7,12-79.9,37-79.9,83.1v60.9h159.8v20.3H111.2c-46.5,0-87.2,27.9-99.9,81.1-14.7,60.9-15.3,98.9,0,162.5,11.4,47.3,38.5,81.1,85,81.1h55v-73c0-52.8,45.7-99.3,99.9-99.3h159.7c44.5,0,79.9-36.6,79.9-81.2V89.6c0-43.3-36.6-75.9-79.9-83.1-27.5-4.5-56-6.5-83.3-6.5Zm-86.5,49c16.5,0,30,13.7,30,30.6s-13.5,30.4-30,30.4-30-13.6-30-30.4,13.4-30.6,30-30.6Z" style="fill:url(#b);"/><path id="e" d="M510.7,170.9v71c0,55-46.7,101.4-99.9,101.4H251.2c-43.7,0-79.9,37.4-79.9,81.2v152.2c0,43.3,37.7,68.8,79.9,81.2,50.6,14.9,99.1,17.6,159.7,0,40.2-11.7,79.9-35.1,79.9-81.2v-60.9h-159.7v-20.3h239.6c46.5,0,63.8-32.4,79.9-81.1,16.7-50.1,16-98.2,0-162.5-11.5-46.3-33.4-81.1-79.9-81.1h-60Zm-89.8,385.7c16.6,0,30,13.6,30,30.4s-13.4,30.6-30,30.6-30-13.7-30-30.6,13.5-30.4,30-30.4Z" style="fill:url(#d);"/></g><g><path d="M49.1,344.8c1.7-5.5,3-11.2,5.1-16.7,6.6-16.7,16.4-31.7,27.2-46,12.9-16.9,27.2-32.3,44.4-44.9,6.4-4.9,13.5-8.9,20.9-12l3.3-1.1c-1.1,3.7-1.8,7.1-3,10.4-5.5,15.8-13.7,30.2-22.6,44.2-13.7,21.3-29,41.3-47.3,59-9.2,8.9-19.7,15.9-32,20.1-1,.5-1.9,1.1-2.6,1.9-3.7,4-7.3,8.1-10.7,12.8,2.3-.2,4.7-.4,7.1-.8,11.7-2.2,22.5-6.9,33.6-11.2,7.1-2.8,14.4-5.5,21.8-8.1,1.8-.6,3.6-.8,5.5-.8,4-.1,5.4,1.8,4.2,5.8-.6,1.8-1.7,3.5-2.6,5.8,2.9-.4,5.4-.7,8.1-1,5.9-.5,11.9-1,17.8-1.3,2.8-.1,5.1,.6,5.4,4,.2,2,1.8,3.4,3.7,3.7,5.5,1,11.1,1.7,16.6,2.5,1.3,.1,2.8,0,4.6,0-6.4,1.7-17.8,.8-23.4-1.3-2.2-.8-4-2.2-4.8-4.6-.2-.7-1.7-1.6-2.5-1.6-4.1,.1-8.3,.1-12.3,.7-5.2,.8-10.1,2.3-15.3,3.3-1.2,.2-2.5-.4-3.7-.6,.2-1.3,.5-2.5,1-3.7s1.6-2.3,2-3.5,.6-2.8,.8-4c-1.3-.1-2.8-.6-4.2-.4-1.9,.4-3.7,1-5.5,1.7-12,4.3-24.1,8.9-36.2,13.1-8.3,2.9-16.9,4.8-26,4.6,4.6-6,9-11.9,13.6-17.6,.8-1,1.8-1.8,3-2.3,23-9.4,39.5-26.5,53.8-45.8,9.8-13.1,18.4-27.1,27.6-40.8l.2-.7-8.7,4.2-.2-.5c3.4-2.3,6.7-4.5,10.1-6.7,1-.5,1.8-1.3,2.4-2.2,5.9-10.7,11.6-21.6,17.3-32.3,0-.4,.2-.8,.4-1.3-1.7,1-3,1.8-4.3,2.6-14.6,9-27.1,20.2-39,32.4-15,15.5-28.4,32.3-39.6,50.8-5.8,9.6-10.7,19.7-13.6,30.7l-1.4-.5h0Z" style="fill:url(#f);"/><path d="M54.8,344c20.1-34.7,44.9-65.7,73.2-93.9-26.5,29.7-51.7,60.3-73.2,93.9Z" style="fill:url(#g);"/></g><g><path d="M305.6,390.1c-.9,1.3-2.5,4.2-5.2,9-2.5,4.9-6.1,11.3-10.4,19.8l2.8,.5c5.8-2.5,11.5-5.2,17.1-8.2,5.2-3,10.4-6.3,15.1-9.9,9.6-7.1,15.2-13.5,17.1-19,.5-1.6,1.1-2.2,1.7-2.2s.5,.3,.5,1.1,0,.6-.2,.9c-1.1,6.6-6.3,13.7-15.2,21-9,7.4-18.2,12.6-30,17.4,12.9,2.5,23.7,6.3,32.2,11.3,11.9,7.1,17.9,15.7,17.9,26.4s-.5,6-1.3,8.6c-.3,1.3-.9,2-1.7,2s-.8-.3-.8-1.1,0-.8,.2-1.1c.6-1.9,.9-3.9,.9-6,0-9-6-17.1-18.1-23.9-10.2-5.8-22.9-10.4-38-13l-1.7,.8-1.7,.5c-2.5,4.9-5,9-7.2,12.6s-4.4,6.9-6.4,9.6c4.7,3.1,10.2,4.9,15.9,4.9s6.9-.9,8.3-3c.2-.3,.5-.3,.8,0s.5,.6,.3,.9c-1.6,2.2-4.6,3.3-9,3.3-6,.2-11.9-1.7-17-5-6.6,8.5-12.6,12.9-18.2,12.9s-3.6-.2-5.2-.8c-1.6-.5-3-1.4-4.2-2.5-2.5-2.4-3.9-5.8-3.9-9.3s.2-.8,.2-1.1l.2-1.1c.2-1.1,.8-1.7,1.7-1.7s.8,.3,.8,1.1-.2,1.1-.3,1.6c-.2,.6-.3,1.3-.3,1.9,0,2.5,1.3,4.7,3.5,6.6s4.9,2.4,8.2,2.2c4.6-.5,9.6-4.6,14.9-11.9-1.6-1.4-3.1-2.8-4.6-4.4l-2,2.4c-.8,.9-1.7,1.9-3,3.1-2.8,3-4.4,4.4-5,4.4s-.9-.3-.9-.8,.2-.2,.3-.3c1.9-1.4,3.6-3,5.2-4.6,1.6-1.7,3.1-3.5,4.6-5.2-2.4-2.8-4.2-5.8-6-9.1h-5.7c-2.8,0-5.7-.6-8.2-2-2.2-1.3-3.1-2.7-3.1-4.2,0-3.1,3.9-5.7,11.8-7.1-1.6-5.5-2.4-11-2.2-16.6,.3-8.5,2.7-15.2,6.8-20.6,4.1-5.2,7.7-6.9,12.6-6.9s7.4,1.7,9.6,4.9c2.5,3.3,4.2,8.2,4.2,14.3s-1.9,14.6-5.5,24.5c2.2,.2,4.2,.3,6.3,.5l4.2-9.4c1.6-3.6,3.3-7.5,5.2-12.1s2.8-6.3,3-6.3c1.6-2.2,4.2-3.6,6.9-3.6s2.2,.5,2.2,1.6c-.4,.2-.5,1-1,1.4h0Zm-51.7,31.3l-.9,.2c-1.4,.2-2.8,.6-3.9,1.6-.9,.5-1.4,1.4-1.6,2.5,0,1.6,1.6,2.5,4.6,2.7,1.4,.2,3,.2,4.4,0-.8-2.3-1.8-4.6-2.6-7h0Zm22.5-3.9c3.5-9.4,5-17.6,5-24s-1.1-10.1-3.5-13.4-4.9-4.4-8.2-4.4-7.7,2.2-10.8,6.4c-3.1,4.2-5.5,11.6-5.8,19.6-.2,5.5,.5,10.8,1.7,16.2,7.3-.9,14.5-1.1,21.6-.4h0Zm-1.3,3.7c-3.9-.3-7.4-.5-10.5-.5s-5.7,.2-8.5,.3c.3,1.3,.8,2.5,1.1,3.6,.5,1.1,.9,2.4,1.4,3.5,2-.2,4.1-.5,6.1-.8l8.5-1.6c.3-.8,.6-1.6,.9-2.2l1-2.3Zm-10,18.4c1.1-1.6,2.2-3.1,3.1-4.7,1.1-1.7,2-3.5,3-5.2l-5.8,1.1c-1.9,.3-3.6,.5-5.3,.8,1.4,2.8,3.1,5.5,5,8h0Zm5.2,5.5c1.9-2.5,3.5-5.2,5-7.9,1.6-3,3.5-6.3,5.2-10.1l-3.6,.9-3.5,.9c-1.1,2-2.4,4.1-3.6,6-1.3,1.9-2.5,3.8-3.8,5.5,1.3,1.9,2.7,3.3,4.3,4.7h0Zm5-19.8c3.9-.9,5.8-1.7,5.8-2.7s-1.3-1.1-4.1-1.3c-.3,.6-.6,1.3-.9,1.9-.2,.7-.5,1.3-.8,2.1Z" style="fill:url(#h);"/><path d="M384.9,436c-3.8,7.5-5.7,13.2-5.7,17.4s1.3,4.9,3.9,4.9c4.1,0,9.3-3.5,15.5-10.1,.6-.6,1.1-.9,1.4-.9s.5,.3,.5,.8-.3,.9-.8,1.3c-7.5,8-14,11.8-19.3,11.3-1.6-.2-3-.9-3.8-2.2-1.4-1.6-2.2-3.8-2-6,0-1.3,.2-2.5,.5-3.8-4.7,5.7-8.5,9.1-11,10.4-1.3,.6-2.7,.9-4.1,1.1-3,0-4.4-1.7-4.4-5.2s1.7-8.6,5.5-15.2c.6-1.1,1.9-1.7,4.1-1.7s1.7,.5,1.3,1.4c-.5,1.1-.9,2-1.6,3-.5,.9-1.1,1.9-1.6,3-1.9,3.8-2.8,6.6-2.8,8.6s.6,3.1,1.7,3.6c2.8,0,6-2.7,9.7-7.7,3.1-4.4,5.8-9.1,7.9-14,.6-.9,1.9-1.4,3.8-1.4s1.4,.3,1.4,.8c.2,.1,0,.4,0,.6h0Z" style="fill:url(#i);"/><path d="M411.6,434.3c0,.8,.2,1.4,.3,2.2l.5,2.4c1.1-1.6,2.2-3,3.5-4.4,1.1-1.4,2.4-2.8,3.6-4.1,3.1-3.1,6.1-4.9,8.8-4.9s2.7,.5,3.6,1.3,1.4,2,1.3,3.3c0,.8-.2,1.7-.5,2.4-.5,.9-.9,1.3-1.6,1.3s-1.1-.5-1.1-1.7c-.3-1.6-1.7-2.8-3.3-2.8s-5.7,1.9-9.1,5.8l-2.4,2.8c-.8,.8-1.6,1.7-2.2,2.8,1.3,4.1,3.3,7.9,6.1,11.2,3,3.5,6.3,5.2,9.9,5.2s3.9-.5,5.7-1.4c3.3-1.7,6.3-4.2,8.8-7.1,.5-.5,.9-.8,1.6-.9,.3,.2,.5,.5,.5,.8,0,.5-.2,.9-.5,1.3-3,3-6.3,5.3-9.9,7.4-4.4,2.5-8,3.8-11,3.8s-5.7-1.6-8.5-4.6c-2.7-2.8-4.9-6.1-6.3-9.7-1.3,2-2.4,4.2-3.3,6.4-1.1,2.5-2.4,5.5-3.6,9-.8,.5-1.6,.8-2.5,.8-1.9,0-3-1.4-3-4.2s.2-1.4,.3-2.2c1.1-3.1,2.4-6.9,3.9-11.2,1.7-4.2,3.6-9.1,5.8-14.6,5.8-14,10.8-23.7,14.6-29.4,3.9-5.7,6.8-7.2,10.5-7.2s4.2,1.6,4.2,4.9-.3,3.3-.9,4.9c-2.4,8.4-10.6,18.6-23.8,30.4h0Zm-3.1,10.2c-.5-1.3-.9-2.5-1.1-3.8-3,6.6-4.9,11.8-5.3,16,1.8-4.2,4-8.3,6.4-12.2Zm24-41.3c.6-1.4,1.1-3.1,1.1-4.7s-.6-2.4-1.7-2.4-3.8,1.9-6,5.7c-2.2,3.8-5.5,10.2-8,15.2-2.5,5.2-4.9,10.4-7.1,15.9,2-2,4.1-4.2,6.1-6.6s3.9-4.9,6-7.4c1.9-2.5,4.2-5.8,5.8-8.5,1.6-2.2,2.9-4.7,3.8-7.2h0Z" style="fill:url(#j);"/><path d="M471.9,436c-3.8,7.5-5.7,13.2-5.7,17.4s1.3,4.9,3.9,4.9c3.9,0,9.3-3.5,15.4-10.1,.3-.5,.9-.8,1.6-.9,.3,0,.5,.3,.5,.8s-.2,.9-.6,1.3c-7.5,8-14,11.8-19.3,11.3-1.6-.2-3-.9-3.8-2.2-1.4-1.6-2.2-3.8-2-6,0-1.3,.2-2.5,.5-3.8-4.9,5.7-8.5,9.1-11.2,10.4-1.3,.6-2.7,.9-3.9,1.1-3,0-4.6-1.7-4.6-5.2s1.9-8.6,5.5-15.2c.6-1.1,2-1.7,4.1-1.7s1.7,.5,1.3,1.4l-1.6,3c-.6,.9-1.1,1.9-1.6,3-1.9,3.8-2.8,6.6-2.8,8.6s.5,3.1,1.7,3.6c2.8,0,6.1-2.7,9.7-7.7,3.3-4.2,5.8-9.1,7.9-14,.8-.9,1.9-1.4,3.8-1.4s1.4,.3,1.4,.8-.2,.4-.2,.6h0Z" style="fill:url(#k);"/><path d="M485.6,460c-.2,.6-.8,.9-1.3,.9-.8,0-1.4-.3-1.9-.9-.5-.5-.6-.9-.6-1.6,.2-.5,1.1-2.4,1.9-4.2,.8-1.7,1.7-3.9,2.8-6.4,2.8-6.4,4.1-10.2,4.1-11.6s1.3-1.1,3.1-1.9c1.9-.9,3.1-.8,3.1,.8-1.3,4.2-4.1,10.8-8.5,19.8l7.7-8.3c2.8-2.8,5.7-6.1,8.8-9.4,1.4-1.6,2.5-2.5,3.5-2.5s.8,.3,.8,.9l-.3,1.6c-2.2,7.4-3.3,12.6-3.3,15.5s1.1,5.2,3.6,5.2,5-1.1,7.9-3.5l2.4-2.2,3.9-3.9c.5-.5,.8-.8,1.1-.8s.5,.2,.6,.6c.2,.3,0,.8-.3,1.1-6.6,7.2-12.6,11-17.6,11s-6.8-3.6-6.8-10.7c-.2-1.7,0-3.5,.3-5.2-.9,.8-1.9,1.7-3.1,3l-4.4,4.1-2.4,2.4c-.8,.8-1.4,1.6-2.2,2.5-.5,.6-1.1,1.3-1.6,1.9l-1.3,1.8h0Z" style="fill:url(#l);"/></g></svg>